<?xml version="1.0" encoding="UTF-8"?>
<!DOCTYPE svg PUBLIC "-//W3C//DTD SVG 1.1//EN" "http://www.w3.org/Graphics/SVG/1.1/DTD/svg11.dtd">
<!-- Creator: CorelDRAW X7 -->
<svg xmlns="http://www.w3.org/2000/svg" xml:space="preserve" width="6.66666in" height="1.66666in" version="1.1" style="shape-rendering:geometricPrecision; text-rendering:geometricPrecision; image-rendering:optimizeQuality; fill-rule:evenodd; clip-rule:evenodd"
viewBox="0 0 6667 1667"
 xmlns:xlink="http://www.w3.org/1999/xlink"
 xmlns:dc="http://purl.org/dc/elements/1.1/"
 xmlns:cc="http://creativecommons.org/ns#"
 xmlns:rdf="http://www.w3.org/1999/02/22-rdf-syntax-ns#"
 xmlns:svg="http://www.w3.org/2000/svg"
 xmlns:sodipodi="http://sodipodi.sourceforge.net/DTD/sodipodi-0.dtd"
 xmlns:inkscape="http://www.inkscape.org/namespaces/inkscape"
 inkscape:version="0.91 r13725"
 sodipodi:docname="bando-text-long-svg.svg">
 <defs>
  <style type="text/css">
   <![CDATA[
    .fil1 {fill:black}
    .fil0 {fill:#00BC65}
   ]]>
  </style>
 </defs>
 <g id="Layer_x0020_1">
  <metadata id="CorelCorpID_0Corel-Layer"/>
  <sodipodi:namedview pagecolor="#ffffff" bordercolor="#666666" borderopacity="1" objecttolerance="10" gridtolerance="10" guidetolerance="10" inkscape:pageopacity="0" inkscape:pageshadow="2" inkscape:window-width="958" inkscape:window-height="1048" id="namedview3338" showgrid="false" fit-margin-top="0" fit-margin-left="0" fit-margin-right="0" fit-margin-bottom="0" inkscape:zoom="0.7329562" inkscape:cx="510.05885" inkscape:cy="435.40994" inkscape:window-x="953" inkscape:window-y="0" inkscape:window-maximized="0" inkscape:current-layer="svg3336"/>
  <path id="path3350" class="fil0" d="M512 1370c-122,-123 -229,-231 -238,-241 -45,-52 -69,-87 -96,-140 -12,-23 -12,-26 0,-30 6,-3 44,-11 84,-18 13,-2 15,-1 26,19 49,88 125,161 216,207 145,74 314,74 459,0 91,-46 167,-119 216,-207 11,-20 12,-21 26,-19 40,7 78,15 84,18 12,4 12,7 0,30 -28,55 -52,89 -101,145 -11,13 -118,121 -237,240l-218 218 -221 -222zm183 -229c-50,-7 -99,-22 -146,-46 -81,-42 -150,-109 -195,-189 -10,-17 -11,-19 -15,-18 -17,3 -63,12 -76,15 -97,20 -104,21 -111,14 -8,-9 -6,-21 4,-27 4,-2 74,-18 147,-33 6,-2 15,-4 18,-4l6 -2 -5 -15 -5 -15 -6 1c-3,1 -22,2 -42,3 -20,2 -40,3 -44,4 -17,1 -55,3 -72,3 -18,0 -18,0 -22,-5 -7,-8 -5,-20 5,-25 3,-1 25,-4 60,-7 86,-8 109,-10 110,-11 0,0 -1,-8 -3,-17l-4 -17 -78 0c-42,0 -81,-1 -86,-2 -17,-2 -24,-17 -14,-27 7,-6 15,-7 92,-8 37,-1 70,-2 73,-2l6 -1 1 -35c1,-47 8,-81 23,-120 23,-57 59,-100 105,-123 10,-5 26,-11 27,-10 1,1 19,83 31,140l2 9 252 0 253 0 2 -9c12,-57 30,-139 30,-140 2,-1 18,5 28,10 27,13 57,40 74,66 35,50 52,107 54,177l1 35 6 1c3,0 36,1 73,2 76,1 85,2 91,8 11,10 4,25 -13,27 -5,1 -44,2 -87,2l-77 0 -4 17c-2,9 -3,17 -3,17 1,1 24,3 110,11 35,3 57,6 60,7 10,5 12,17 5,25 -4,5 -4,5 -23,5 -16,0 -54,-2 -72,-3 -3,-1 -23,-2 -43,-4 -20,-1 -39,-2 -42,-3l-6 -1 -5 15 -5 15 6 2c3,0 11,2 18,4 7,1 33,7 58,12 25,6 54,12 65,15 20,4 27,7 31,13 3,5 2,15 -4,20 -6,7 -13,6 -110,-14 -13,-3 -59,-12 -76,-15 -4,-1 -5,1 -15,18 -28,51 -71,101 -115,136 -90,73 -208,111 -303,99zm-100 -395c14,-5 28,-14 36,-23 6,-8 14,-22 16,-30l1 -5 -83 0 -83 0 1 4c8,29 33,51 65,58 11,3 35,1 47,-4zm337 0c14,-5 28,-14 36,-23 5,-7 14,-23 16,-31l1 -4 -83 0 -83 0 1 5c2,7 9,20 14,28 11,13 31,25 51,29 11,3 35,1 47,-4zm-817 -73c-4,-4 -4,-11 -1,-41 9,-76 29,-144 64,-213 31,-63 70,-117 121,-167 27,-25 36,-33 63,-53 88,-66 185,-105 295,-120 42,-5 111,-5 153,0 110,15 207,54 295,120 27,20 36,28 62,53 105,102 169,234 186,380 3,30 3,37 -1,41 -3,4 -6,4 -51,4 -49,0 -55,-1 -56,-8 0,-1 -2,-12 -3,-23 -3,-37 -15,-87 -29,-125 -8,-22 -35,-76 -48,-96 -77,-121 -197,-204 -336,-231 -36,-7 -57,-9 -96,-9 -38,0 -59,2 -95,9 -139,27 -259,110 -336,231 -13,20 -40,74 -48,96 -14,38 -26,88 -29,125 -1,11 -3,22 -3,23 -1,7 -7,8 -56,8 -45,0 -48,0 -51,-4l0 0z" inkscape:connector-curvature="0"/>
  <sodipodi:namedview pagecolor="#ffffff" bordercolor="#666666" borderopacity="1" objecttolerance="10" gridtolerance="10" guidetolerance="10" inkscape:pageopacity="0" inkscape:pageshadow="2" inkscape:window-width="1920" inkscape:window-height="1057" id="namedview4186" showgrid="false" fit-margin-top="0" fit-margin-left="0" fit-margin-right="0" fit-margin-bottom="0" inkscape:zoom="0.47334361" inkscape:cx="1494.2697" inkscape:cy="372.81507" inkscape:window-x="-8" inkscape:window-y="-8" inkscape:window-maximized="1" inkscape:current-layer="svg4184"/>
  <path id="path4194" class="fil1" d="M1479 1051c1,-2 21,-102 44,-221l44 -217 221 0c227,0 262,1 289,7 41,11 65,34 65,61 0,11 -7,36 -13,46 -9,16 -26,33 -41,41 -15,8 -40,16 -62,19 -16,3 -16,3 6,8 25,6 52,23 63,38 5,9 10,23 10,33 0,10 -17,92 -22,103 -20,48 -62,75 -129,83 -11,1 -104,2 -247,2 -217,0 -229,0 -228,-3l0 0zm470 -127c4,-23 8,-41 8,-42 0,-1 -67,-2 -149,-1l-149 0 -7 35c-4,20 -7,38 -8,42l-1 6 149 0 149 0 8 -40 0 0zm34 -172c4,-20 8,-39 8,-41l1 -5 -149 0 -149 0 -7 39c-5,21 -8,40 -9,41 -1,2 30,2 149,2l149 0 7 -36 0 0zm129 298c1,-3 17,-83 36,-179 40,-197 38,-191 60,-213 21,-20 43,-32 79,-40 18,-4 20,-4 261,-5 198,0 243,0 243,2 0,1 -20,101 -43,221l-44 218 -74 0c-58,0 -73,0 -73,-2 0,-2 7,-40 16,-86 9,-45 17,-83 17,-84 0,-1 -67,-2 -148,-2l-149 0 -8 42c-9,44 -13,57 -22,72 -12,20 -44,41 -75,50 -17,5 -48,10 -65,10 -11,0 -12,0 -11,-4l0 0zm504 -298c4,-20 8,-39 8,-41l1 -5 -148 0c-82,0 -149,1 -149,1 0,0 -4,18 -8,39 -4,22 -8,40 -8,41 0,1 67,1 149,1l148 0 7 -36 0 0zm707 299c0,-2 20,-102 44,-221l44 -217 225 0c224,0 262,1 285,6 27,7 48,22 57,40 10,20 10,21 -22,177 -32,159 -31,156 -53,177 -22,20 -55,34 -94,39 -11,1 -93,2 -252,2 -223,0 -235,0 -234,-3l0 0zm488 -216l26 -129 -148 0 -148 0 -24 125c-14,68 -26,126 -26,129l-1 4 148 0 148 -1 25 -128zm247 217c-29,-4 -50,-14 -66,-30 -14,-14 -19,-26 -19,-42 0,-20 53,-283 59,-297 11,-22 40,-45 70,-56 36,-13 28,-13 216,-14 210,-1 227,0 259,15 25,12 38,30 40,54 0,12 -4,33 -28,155 -32,156 -31,154 -50,174 -19,19 -41,30 -73,38 -17,4 -23,4 -207,4 -105,0 -195,0 -201,-1zm384 -212c14,-69 25,-127 26,-129l1 -5 -149 0c-81,0 -148,1 -148,1 0,0 -12,58 -26,127 -14,70 -25,128 -25,129 0,1 67,1 148,1l148 0 25 -124 0 0zm245 211c-37,-7 -64,-24 -76,-48 -9,-17 -9,-21 21,-168 14,-73 28,-138 29,-143 7,-22 31,-44 62,-59 23,-11 44,-16 71,-18 28,-3 327,-3 357,0 29,2 43,5 62,15 18,8 29,20 35,35 4,9 4,14 3,28 -1,25 -8,39 -26,53 -17,12 -56,31 -76,37 -17,4 -63,7 -63,4 0,-1 3,-19 8,-41 4,-21 7,-39 7,-39 0,0 -66,-1 -148,-1 -82,0 -148,1 -148,1 0,0 -12,58 -26,127 -14,70 -25,128 -25,129 0,1 67,1 149,1l148 -1 9 -44 9 -45 73 0 72 0 -10 51c-12,57 -16,67 -34,86 -18,18 -42,30 -77,38 -13,4 -30,4 -203,4 -152,1 -191,0 -203,-2l0 0zm538 -1c1,-3 17,-83 36,-179 40,-197 38,-191 61,-213 20,-20 42,-32 78,-40 19,-4 20,-4 261,-5 199,0 243,0 243,2 0,1 -19,101 -43,221l-44 218 -73 0c-59,0 -74,0 -74,-2 0,-2 7,-40 16,-86 10,-45 17,-83 17,-84 0,-1 -67,-2 -148,-2l-148 0 -9 42c-8,44 -12,57 -22,72 -12,20 -43,41 -75,50 -17,5 -48,10 -64,10 -12,0 -13,0 -12,-4l0 0zm504 -298c4,-20 8,-39 9,-41l1 -5 -149 0c-82,0 -149,1 -149,1 0,0 -3,18 -8,39 -4,22 -7,40 -7,41 0,1 66,1 148,1l148 0 7 -36 0 0zm359 302c0,-1 15,-78 34,-172 19,-94 34,-172 34,-173 0,-2 -23,-3 -112,-3 -93,0 -112,0 -112,-2 0,-2 1,-9 3,-18 12,-47 40,-66 101,-71 20,-2 511,-3 511,-2 0,5 -7,34 -10,40 -13,30 -45,47 -94,51 -12,2 -48,2 -80,2l-57 0 -28 138c-15,75 -30,142 -32,148 -2,6 -8,16 -12,23 -19,29 -50,39 -115,39 -17,0 -31,0 -31,0zm-3296 -222l44 -219 14 0c30,0 63,3 80,8 22,7 43,17 54,26 4,4 39,43 77,87 95,110 110,127 111,125 1,-1 9,-39 18,-85 19,-97 20,-101 40,-121 23,-22 57,-35 108,-38 15,-2 28,-2 29,-2 0,1 -19,100 -43,220l-44 219 -18 0c-58,0 -103,-12 -129,-34 -4,-4 -48,-53 -97,-110 -80,-93 -90,-104 -91,-100 -1,3 -12,59 -25,124l-24 120 -74 0 -74 0 44 -220 0 0z" inkscape:connector-curvature="0"/>
 </g>
</svg>
